#!OML:ASF E:\emotionWalksFemale\Project 1\Capture day 1\Session 1\Female1.ASF
:FULLY-SPECIFIED
:DEGREES
2017
root 11.053 15.3437 -12.8869 -4.80126 2.75446 3.46741
lowerback 6.47977 -0.455102 -3.37343
upperback -3.32898 -0.779927 2.2633
thorax -7.06346 -0.163565 4.38094
lowerneck -7.71924 -7.82275 -7.75907
upperneck 30.6658 -17.5741 22.4403
head 15.0166 -6.28531 7.96042
rclavicle -4.37326e-015 4.77083e-015
rhumerus -39.8627 -0.725686 -81.2729
rradius 32.2614
rwrist 18.8504
rhand -6.11404 -46.8921
rfingers 7.12502
rthumb 19.7227 -75.9115
lclavicle -4.37326e-015 4.77083e-015
lhumerus -34.6705 1.98588 88.1353
lradius 41.0276
lwrist -7.34767
lhand -6.15271 -35.0675
lfingers 7.12502
lthumb 19.6855 -6.04424
rfemur -22.0295 -0.24775 18.8587
rtibia 65.8378
rfoot -14.0188 -15.2701
rtoes -11.5889
lfemur -3.27401 -15.4306 -34.8802
ltibia 25.6586
lfoot -18.8237 13.1821
ltoes -6.58339
2018
root 11.0434 15.3432 -12.829 -4.62499 3.06442 3.06812
lowerback 6.58784 -0.552957 -3.15977
upperback -3.34001 -0.883217 2.41408
thorax -7.12753 -0.218584 4.43521
lowerneck -7.6102 -7.76138 -7.83861
upperneck 30.5631 -17.476 22.5742
head 14.9466 -6.25227 8.05032
rclavicle 1.68967e-014 5.56597e-015
rhumerus -39.5749 -0.639844 -81.3539
rradius 32.0423
rwrist 19.0944
rhand -6.30846 -46.1646
rfingers 7.12502
rthumb 19.5358 -75.2031
lclavicle 1.68967e-014 5.56597e-015
lhumerus -34.4172 1.92538 88.3423
lradius 41.2722
lwrist -7.21289
lhand -6.08405 -35.0761
lfingers 7.12502
lthumb 19.7516 -6.05963
rfemur -22.8472 0.221833 19.4682
rtibia 64.7246
rfoot -14.507 -16.3242
rtoes -11.1933
lfemur -3.43944 -15.3246 -34.3482
ltibia 25.9769
lfoot -19.2572 12.5272
ltoes -6.7081
2019
root 11.0414 15.3349 -12.7625 -4.59664 3.21313 3.03686
lowerback 6.65948 -0.583103 -3.18533
upperback -3.2721 -0.927239 2.42341
thorax -7.09155 -0.240851 4.46534
lowerneck -7.4866 -7.77899 -7.77456
upperneck 30.5687 -17.4757 22.4725
head 14.8951 -6.26139 7.99267
rclavicle -5.1684e-015 -2.62396e-014
rhumerus -39.368 -0.591413 -81.4214
rradius 31.8083
rwrist 19.1827
rhand -6.93171 -45.2467
rfingers 7.12502
rthumb 18.9365 -74.3449
lclavicle -5.1684e-015 -2.62396e-014
lhumerus -34.3169 1.68957 88.5221
lradius 41.6603
lwrist -6.91309
lhand -5.75808 -34.7386
lfingers 7.12502
lthumb 20.0649 -5.75465
rfemur -23.4296 0.631989 19.5773
rtibia 63.6172
rfoot -15.002 -16.9469
rtoes -11.4561
lfemur -3.29888 -15.1616 -34.3348
ltibia 26.1456
lfoot -19.5792 12.1625
ltoes -6.71217
2020
root 11.0448 15.3269 -12.6895 -4.64713 3.26964 3.16901
lowerback 6.84398 -0.55009 -3.17358
upperback -3.27202 -0.89527 2.28889
thorax -7.20304 -0.226407 4.31636
lowerneck -7.20949 -7.7943 -7.62086
upperneck 30.6694 -17.5077 22.3488
head 14.8481 -6.28158 7.91751
rclavicle -7.55382e-015 4.77083e-015
rhumerus -39.4605 -0.382296 -81.7195
rradius 31.8064
rwrist 18.9855
rhand -5.9319 -46.5071
rfingers 7.12502
rthumb 19.8978 -75.5085
lclavicle -7.55382e-015 4.77083e-015
lhumerus -34.6426 1.1356 88.6747
lradius 42.2799
lwrist -6.38797
lhand -5.53699 -34.3268
lfingers 7.12502
lthumb 20.2774 -5.3653
rfemur -23.8491 1.01985 19.4668
rtibia 62.5003
rfoot -15.5814 -17.3123
rtoes -11.2586
lfemur -3.04248 -14.9632 -34.5684
ltibia 26.3712
lfoot -19.9449 12.0863
ltoes -6.6543
2021
root 11.0439 15.3207 -12.6202 -4.5379 3.36284 3.3117
lowerback 6.95939 -0.546916 -3.27853
upperback -3.33377 -0.91005 2.20729
thorax -7.33458 -0.226367 4.29535
lowerneck -6.88921 -7.73571 -7.63935
upperneck 30.7562 -17.446 22.3899
head 14.8068 -6.27142 7.9724
rclavicle -1.19271e-015 7.95139e-016
rhumerus -39.6536 0.212916 -82.2533
rradius 32.1511
rwrist 18.7763
rhand -7.28272 -47.6808
rfingers 7.12502
rthumb 18.5989 -76.8117
lclavicle -1.19271e-015 7.95139e-016
lhumerus -34.8596 0.888151 88.8478
lradius 42.5762
lwrist -6.17037
lhand -6.10653 -34.6041
lfingers 7.12502
lthumb 19.7299 -5.58543
rfemur -24.4292 1.4267 19.3669
rtibia 61.3532
rfoot -16.2346 -17.6484
rtoes -8.36376
lfemur -2.9474 -14.7809 -34.7286
ltibia 26.524
lfoot -20.2759 11.8831
ltoes -5.86528
2022
root 11.0382 15.3119 -12.5538 -4.43132 3.50654 3.30855
lowerback 7.01978 -0.578044 -3.37861
upperback -3.2822 -0.962307 2.22374
thorax -7.30793 -0.248284 4.3768
lowerneck -7.03339 -7.76109 -7.62546
upperneck 30.8594 -17.501 22.3534
head 14.8984 -6.28232 7.94988
rclavicle -1.98785e-016 7.95139e-016
rhumerus -39.5632 0.658395 -82.6093
rradius 32.2936
rwrist 18.6689
rhand -6.87949 -49.1636
rfingers 7.12502
rthumb 18.9867 -78.2569
lclavicle -1.98785e-016 7.95139e-016
lhumerus -34.6653 0.821122 89.0075
lradius 42.5264
lwrist -6.18309
lhand -6.88853 -35.1229
lfingers 7.12502
lthumb 18.978 -6.02874
rfemur -24.9225 1.86457 19.4517
rtibia 60.1486
rfoot -16.9228 -17.9665
rtoes -5.06651
lfemur -2.83153 -14.7566 -34.7198
ltibia 26.6182
lfoot -20.5408 11.5799
ltoes -4.81864
2023
root 11.0349 15.3066 -12.48 -4.4684 3.57034 3.20095
lowerback 7.06678 -0.583251 -3.31837
upperback -3.15994 -0.962043 2.25581
thorax -7.20437 -0.255028 4.3751
lowerneck -7.03534 -7.73123 -7.58518
upperneck 30.9409 -17.448 22.2744
head 14.9082 -6.25724 7.92281
rclavicle 1.74931e-014 -9.54166e-015
rhumerus -39.3741 0.78564 -82.6972
rradius 32.1548
rwrist 18.7468
rhand -7.0341 -48.9159
rfingers 7.12502
rthumb 18.838 -78.0237
lclavicle 1.74931e-014 -9.54166e-015
lhumerus -34.5992 0.641964 89.1866
lradius 42.7807
lwrist -5.95178
lhand -6.98391 -34.8387
lfingers 7.12502
lthumb 18.8863 -5.73558
rfemur -25.1808 2.37626 19.6555
rtibia 58.8648
rfoot -17.2733 -18.4653
rtoes -5.69084
lfemur -2.53016 -14.7262 -34.6665
ltibia 26.7377
lfoot -20.8338 11.4432
ltoes -5.01821
2024
root 11.0344 15.3016 -12.4014 -4.41435 3.55532 3.2826
lowerback 7.04055 -0.573938 -3.37494
upperback -3.14007 -0.956132 2.23265
thorax -7.16824 -0.251376 4.38074
lowerneck -7.13016 -7.72421 -7.63548
upperneck 31.1371 -17.4454 22.1829
head 15.0168 -6.25562 7.90878
rclavicle 5.36719e-015 -1.43125e-014
rhumerus -39.2855 0.879672 -82.7638
rradius 31.9183
rwrist 19.065
rhand -8.48044 -47.8009
rfingers 7.12502
rthumb 17.4465 -77.038
lclavicle 5.36719e-015 -1.43125e-014
lhumerus -34.8741 0.492653 89.3498
lradius 43.2649
lwrist -5.52814
lhand -6.68378 -34.4153
lfingers 7.12502
lthumb 19.1749 -5.34056
rfemur -25.577 2.87803 19.6295
rtibia 57.5228
rfoot -16.9607 -19.1638
rtoes -8.62539
lfemur -2.32777 -14.5275 -34.7954
ltibia 26.9107
lfoot -21.0869 11.3769
ltoes -5.87716
2025
root 11.0324 15.2884 -12.3309 -4.31661 3.62109 3.42398
lowerback 7.02162 -0.60533 -3.55096
upperback -3.09815 -1.01483 2.23983
thorax -7.10451 -0.274237 4.49443
lowerneck -7.16795 -7.74521 -7.68206
upperneck 31.3807 -17.4423 21.9381
head 15.1087 -6.2695 7.82634
rclavicle 7.45443e-015 0
rhumerus -39.163 1.14275 -82.865
rradius 31.7806
rwrist 19.1767
rhand -9.38027 -47.4819
rfingers 7.12502
rthumb 16.5804 -76.7936
lclavicle 7.45443e-015 0
lhumerus -34.5843 0.733297 89.4389
lradius 42.8949
lwrist -5.52663
lhand -6.78381 -34.6709
lfingers 7.12502
lthumb 19.0787 -5.58664
rfemur -25.9722 3.2331 19.525
rtibia 56.1398
rfoot -16.6938 -19.7637
rtoes -9.30549
lfemur -2.15709 -14.3919 -34.9708
ltibia 26.977
lfoot -21.3224 11.3089
ltoes -6.62937
